# xmcd
#
# Track frame offsets:
# 150
# 13256
# 30553
# 39931
# 53287
# 68552
# 79269
# 94176
# 108281
# 122981
# 136374
# 147326
# 158897
# 173716
# 185503
# 196775
# 207474
# 218680
# 232250
# 242807
# 257876
#
# Disc length: 3601 seconds
#
#
# Revision: 1
# Processed by: cddbd v1.5.2PL0 Copyright (c) Steve Scherf et al.
# Submitted via: FreeRIP 2.96 
#
DISCID=280e0f15
DTITLE=Kenny Rogers - Good Time Liberator
DYEAR=2007
DGENRE=Country
TTITLE0=Ruby Don't Take Your Love To Town
TTITLE1=Something's Burning
TTITLE2=Once Again She's All Alone
TTITLE3=But You Know That I Love You
TTITLE4=For The Good Times
TTITLE5=She Even Woke Me Up To Say Goodbye
TTITLE6=Heed The Call
TTITLE7=Sunshine
TTITLE8=After All, I Live My Life
TTITLE9=A Stranger In My Place
TTITLE10=Always Leavin'  Always Gone
TTITLE11=Calico Silver
TTITLE12=Church Without A Name
TTITLE13=Elvira
TTITLE14=Girl Get A Hold Of Yourself
TTITLE15=Homemade Lies
TTITLE16=If Wishes Were Horses
TTITLE17=Shine On Ruby Mountain
TTITLE18=Ticket To Nowhere
TTITLE19=I Just Dropped In (2C what condition)
TTITLE20=Ruben James
EXTD=
EXTT0=
EXTT1=
EXTT2=
EXTT3=
EXTT4=
EXTT5=
EXTT6=
EXTT7=
EXTT8=
EXTT9=
EXTT10=
EXTT11=
EXTT12=
EXTT13=
EXTT14=
EXTT15=
EXTT16=
EXTT17=
EXTT18=
EXTT19=
EXTT20=
PLAYORDER=
